<?xml version="1.0" encoding="iso-8859-1"?>
<!-- Uploaded to: SVG Repo, www.svgrepo.com, Generator: SVG Repo Mixer Tools -->
<svg height="800px" width="800px" version="1.1" id="Layer_1" xmlns="http://www.w3.org/2000/svg" xmlns:xlink="http://www.w3.org/1999/xlink" 
	 viewBox="0 0 512 512" xml:space="preserve">
<path style="fill:#999999;" d="M119.9,222.263l-15.181,44.495l-10.084,29.557c-36.099,36.099-86.463,34.731-86.463,34.731
	c9.102-40.975,28.486-66.549,48.588-82.492C87.486,224.161,119.9,222.263,119.9,222.263z"/>
<path style="fill:#CCCCCC;" d="M503.629,331.046c0,0-50.364,1.368-86.463-34.731l-10.073-29.524l-15.192-44.528
	c0,0,32.337,1.887,63.03,26.192C475.077,264.397,494.505,289.993,503.629,331.046z"/>
<path style="fill:#F2F2F2;" d="M407.667,260.47c8.197,24.448,12.732,49.184,12.732,71.724c0,90.91-73.699,164.586-164.608,164.586
	c-90.899,0-164.586-73.677-164.586-164.586c0-22.54,4.534-47.275,12.732-71.724c4.557-13.614,10.26-27.152,16.957-40.159v-52.836
	l102.56-44.683l97.64-16.549l79.447,46.889l8.848,5.218l12.655,7.469l-31.355,54.458
	C397.384,233.296,403.099,246.844,407.667,260.47z"/>
<path style="fill:#E6E6E6;" d="M129.269,332.195c0-23.808,5.053-50.068,14.147-75.859c10.062-28.536,15.535-58.487,15.535-88.745
	v-0.119l102.569-44.68l68.065-11.537l-8.492-5.012l-97.635,16.548L120.89,167.47v52.838c-18.708,36.39-29.682,76.801-29.682,111.886
	c0,90.904,73.684,164.588,164.588,164.588c6.438,0,12.786-0.382,19.03-1.101C192.889,486.247,129.269,416.66,129.269,332.195z"/>
<path style="fill:#808080;" d="M56.76,248.554c30.726-24.393,63.14-26.291,63.14-26.291l-15.181,44.495
	c-2.648,0.419-5.373,0.64-8.153,0.64C80.524,267.398,66.193,260.061,56.76,248.554z"/>
<path style="fill:#E6E6E6;" d="M390.687,220.278c6.697,13.019,12.412,26.567,16.979,40.192
	c-18.038-2.582-33.054-14.519-39.983-30.737c-2.736,0.618-5.572,0.949-8.484,0.949c-14.629,0-27.372-8.098-33.992-20.057
	c-1.357,0.221-2.747,0.331-4.17,0.331c-3.211,0-6.289-0.574-9.135-1.633c-11.463,18.998-32.293,31.708-56.101,31.708
	c-23.753,0-44.55-12.655-56.024-31.576c-2.747,0.971-5.704,1.5-8.782,1.5c-1.556,0-3.078-0.143-4.557-0.408
	c-6.609,12.004-19.373,20.135-34.036,20.135c-2.913,0-5.748-0.331-8.484-0.949c-6.929,16.218-21.944,28.156-39.983,30.737
	c4.557-13.614,10.26-27.152,16.957-40.159v-52.836l102.56-44.683l97.64-16.549l79.447,46.889c-1.015,2.88-2.284,5.638-3.773,8.252
	c3.994-1.511,8.23-2.549,12.621-3.034l12.655,7.469L390.687,220.278z"/>
<path style="fill:#999999;" d="M454.931,248.455c-9.444,11.562-23.809,18.943-39.894,18.943c-2.703,0-5.351-0.21-7.944-0.607
	l-15.192-44.528C391.901,222.263,424.238,224.15,454.931,248.455z"/>
<path style="fill:#E6E6E6;" d="M415.037,123.44c-6.435,0-12.589,1.19-18.268,3.347c4.254-7.491,6.695-16.146,6.695-25.376
	c0-28.431-23.048-51.481-51.481-51.481c-11.736,0-22.55,3.93-31.208,10.541c-9.762-26.415-35.166-45.25-64.973-45.25
	s-55.211,18.834-64.973,45.25C182.17,53.86,171.355,49.93,159.62,49.93c-28.432,0-51.481,23.05-51.481,51.481
	c0,9.23,2.442,17.885,6.695,25.376c-5.679-2.157-11.833-3.347-18.268-3.347c-28.432,0-51.481,23.048-51.481,51.481
	s23.048,51.481,51.481,51.481c21.253,0,39.496-12.882,47.354-31.262c2.732,0.608,5.567,0.94,8.482,0.94
	c14.664,0,27.425-8.129,34.035-20.124c1.484,0.259,3.008,0.403,4.565,0.403c3.077,0,6.029-0.533,8.773-1.504
	c11.478,18.93,32.271,31.582,56.027,31.582c23.809,0,44.64-12.71,56.101-31.71c2.846,1.055,5.925,1.632,9.137,1.632
	c1.419,0,2.809-0.116,4.167-0.332c6.621,11.955,19.359,20.053,33.994,20.053c2.915,0,5.75-0.331,8.482-0.94
	c7.859,18.381,26.1,31.262,47.354,31.262c28.432,0,51.481-23.048,51.481-51.481C466.517,146.488,443.469,123.44,415.037,123.44z"/>
<g>
	<path style="fill:#CCCCCC;" d="M201.266,59.224c12.303,2.471,25.013-1.649,33.126-11.224c12.701-14.99,31.664-24.506,52.851-24.506
		c0.483,0,0.962,0.019,1.444,0.029c-9.784-5.291-20.981-8.302-32.885-8.302c-28.952,0-53.747,17.77-64.091,42.997
		C194.978,58.259,198.173,58.603,201.266,59.224z"/>
	<path style="fill:#CCCCCC;" d="M76.568,181.104c1.047-26.416,22.412-48.001,48.816-49.324c0.446-0.022,0.891-0.039,1.335-0.05
		c8.176-0.202,14.281-7.482,13.262-15.598c-0.265-2.112-0.402-4.263-0.402-6.446c0-27.328,21.298-49.672,48.199-51.366
		c-8.717-5.709-19.265-8.853-30.578-8.334c-26.397,1.21-47.839,22.693-49.011,49.092c-0.448,10.103,2.032,19.59,6.643,27.709
		c-7.027-2.669-14.783-3.858-22.897-3.143c-24.997,2.204-44.986,22.567-46.724,47.602c-2.088,30.094,21.706,55.156,51.353,55.156
		c1.107,0,2.203-0.043,3.292-0.111C85.273,216.743,75.82,200.004,76.568,181.104z"/>
</g>
<path d="M215.832,321.834v-23.02c0-4.57-3.705-8.275-8.275-8.275c-4.57,0-8.275,3.705-8.275,8.275v23.02
	c0,4.57,3.705,8.275,8.275,8.275C212.127,330.108,215.832,326.403,215.832,321.834z"/>
<path d="M312.517,321.834v-23.02c0-4.57-3.705-8.275-8.275-8.275c-4.57,0-8.275,3.705-8.275,8.275v23.02
	c0,4.57,3.705,8.275,8.275,8.275C308.812,330.108,312.517,326.403,312.517,321.834z"/>
<path d="M511.802,329.247c-12.55-56.474-44.17-84.811-68.485-98.637c-0.963-0.547-1.919-1.065-2.873-1.577
	c20.33-9.547,34.445-30.209,34.445-54.114c0-32.949-26.806-59.755-59.755-59.755c-1.659,0-3.312,0.068-4.954,0.204
	c1.094-4.555,1.656-9.242,1.656-13.957c0-4.57-3.705-8.275-8.275-8.275c-4.57,0-8.275,3.705-8.275,8.275
	c0,7.458-1.942,14.82-5.616,21.291c-1.723,3.034-1.357,6.823,0.914,9.47c2.269,2.648,5.96,3.588,9.22,2.35
	c4.907-1.863,10.064-2.809,15.33-2.809c23.824,0,43.206,19.382,43.206,43.206s-19.382,43.206-43.206,43.206
	c-17.329,0-32.93-10.3-39.745-26.24c-1.566-3.663-5.52-5.69-9.407-4.825c-2.21,0.492-4.458,0.741-6.684,0.741
	c-11.11,0-21.362-6.049-26.754-15.788c-1.688-3.048-5.103-4.711-8.543-4.163c-3.107,0.495-6.246,0.18-9.125-0.888
	c-3.727-1.381-7.908,0.083-9.96,3.485c-10.468,17.351-28.791,27.71-49.016,27.71c-20.174,0-38.473-10.317-48.952-27.598
	c-2.032-3.352-6.139-4.819-9.835-3.511c-2.897,1.026-5.982,1.308-9.149,0.752c-3.48-0.612-6.969,1.06-8.676,4.157
	c-5.384,9.773-15.649,15.843-26.787,15.843c-2.224,0-4.473-0.249-6.683-0.741c-3.888-0.866-7.841,1.161-9.407,4.825
	c-6.815,15.94-22.416,26.24-39.745,26.24c-23.824,0-43.206-19.382-43.206-43.206s19.382-43.206,43.206-43.206
	c5.265,0,10.423,0.944,15.33,2.809c3.26,1.238,6.951,0.299,9.22-2.35c2.271-2.649,2.636-6.438,0.914-9.47
	c-3.674-6.47-5.616-13.833-5.616-21.291c0-23.824,19.382-43.206,43.206-43.206c9.555,0,18.611,3.057,26.187,8.843
	c2.086,1.593,4.805,2.102,7.327,1.37c2.521-0.731,4.545-2.616,5.456-5.079c8.806-23.832,31.799-39.842,57.211-39.842
	c25.414,0,48.405,16.012,57.21,39.842c0.91,2.463,2.935,4.347,5.456,5.079c2.522,0.733,5.241,0.224,7.327-1.37
	c7.577-5.784,16.632-8.843,26.187-8.843c13.506,0,25.989,6.145,34.247,16.859c2.789,3.619,7.984,4.293,11.605,1.503
	c3.62-2.79,4.292-7.985,1.503-11.605c-11.416-14.811-28.675-23.306-47.355-23.306c-9.744,0-19.114,2.3-27.567,6.718
	C311.25,23.24,284.807,6.945,255.902,6.945s-55.348,16.294-68.615,41.427c-8.453-4.416-17.823-6.718-27.567-6.718
	c-32.949,0-59.755,26.806-59.755,59.755c0,4.714,0.562,9.402,1.656,13.957c-1.642-0.136-3.294-0.204-4.955-0.204
	c-32.949,0-59.755,26.806-59.755,59.755c0,23.953,14.173,44.647,34.567,54.168c-0.93,0.5-1.856,0.989-2.795,1.521
	c-24.316,13.827-55.935,42.164-68.485,98.637c-0.536,2.412,0.033,4.937,1.553,6.884c1.519,1.948,3.829,3.116,6.299,3.182
	c0.114,0.003,0.461,0.011,1.024,0.011c5.604,0,32.475-0.783,60.509-14.896c4.082-2.054,5.725-7.03,3.669-11.111
	c-2.054-4.082-7.029-5.726-11.111-3.669c-16.537,8.325-32.859,11.378-43.075,12.491c9.984-34.835,29.176-60.633,57.156-76.775
	c9.114-5.258,17.876-8.671,25.171-10.882c1.334-0.105,2.657-0.254,3.97-0.446c-14.304,32.979-22.33,67.893-22.33,98.157
	c0,5.701,0.281,11.453,0.835,17.096c0.419,4.273,4.019,7.466,8.225,7.466c0.27,0,0.544-0.013,0.819-0.041
	c4.548-0.447,7.873-4.496,7.425-9.044c-0.502-5.107-0.756-10.314-0.756-15.478c0-32.481,10.095-70.961,27.714-105.955
	c8.835-5.271,16.287-12.808,21.469-22.037c1.246,0.1,2.492,0.15,3.736,0.15c15.31,0,29.547-7.436,38.332-19.722
	c1.793,0.008,3.589-0.111,5.355-0.373c13.86,19.177,35.761,30.453,59.714,30.453c23.986,0,45.896-11.298,59.753-30.512
	c1.75,0.279,3.526,0.425,5.318,0.434c8.785,12.284,23.029,19.722,38.329,19.722c1.243,0,2.49-0.05,3.737-0.15
	c5.188,9.238,12.649,16.781,21.496,22.053c17.604,34.99,27.691,73.465,27.691,105.937c0,86.192-70.122,156.314-156.314,156.314
	c-34.435,0-67.092-10.974-94.44-31.737c-26.476-20.099-46.2-48.627-55.539-80.328c-1.291-4.384-5.89-6.891-10.276-5.599
	c-4.383,1.291-6.89,5.891-5.599,10.276c10.33,35.064,32.138,66.612,61.407,88.832c30.251,22.965,66.367,35.104,104.447,35.104
	c95.317,0,172.863-77.546,172.863-172.863c0-5.281-0.25-10.707-0.729-16.237c32.38,22.228,67.938,23.37,74.799,23.37
	c0.584,0,0.961-0.008,1.109-0.012c2.469-0.067,4.779-1.235,6.299-3.182C511.769,334.184,512.339,331.658,511.802,329.247z
	 M424.617,291.916c-3.732-19.092-9.895-38.808-18.162-57.879c1.397,0.204,2.807,0.361,4.228,0.467
	c7.28,2.212,16.013,5.618,25.095,10.858c27.976,16.14,47.167,41.932,57.152,76.76C477.429,320.409,447.881,314.201,424.617,291.916z
	"/>
<circle cx="282.217" cy="430.332" r="8.275"/>
<circle cx="229.58" cy="430.332" r="8.275"/>
</svg>