<?xml version="1.0" encoding="utf-8"?>
<!-- Generator: Adobe Illustrator 26.2.1, SVG Export Plug-In . SVG Version: 6.00 Build 0)  -->
<svg version="1.1" xmlns="http://www.w3.org/2000/svg" xmlns:xlink="http://www.w3.org/1999/xlink" x="0px" y="0px"
	 viewBox="0 0 283.5 283.5" style="enable-background:new 0 0 283.5 283.5;" xml:space="preserve">
<style type="text/css">
	.st0{fill:#FFFFFF;}
	.st1{fill:none;stroke:#000000;stroke-width:9.7222;stroke-linecap:round;stroke-linejoin:round;stroke-miterlimit:19.4444;}
</style>
<g id="Слой_2">
	<rect class="st0" width="283.5" height="283.5"/>
</g>
<g id="Слой_1">
	<g>
		<path class="st1" d="M115.5,130.9l-14.5,9.5c-2.5,1.6-5.4,2.5-8.4,2.5h-5.1c-4.2,0-8.2-1.7-11.2-4.8c-3.4-3.6-4.9-8.6-4-13.4
			l5.3-28.7l19.5-15c0,0,8.2-31.5,28.6-15.8C148.9,83.1,115,96.5,115,96.5"/>
		<path class="st1" d="M446.3,174.3"/>
		<path class="st1" d="M131.9,71.7c0,0,33.4-16.3,54.4-13.3c8.6,1,17.2,0.7,25.6-1.1c37.4-7.8,70.2-7.9,70.2-7.9"/>
		<path class="st1" d="M188.2,129.9c0,0,5.4,32.2-9.5,41.4c-16.8,10.3-52.6,32.9-52.6,32.9s4.2,34.6-22.5,21.2"/>
		<path class="st1" d="M143.5,105.6c0,0-12.1,15.9-3.8,52.3l-26.4,25.9"/>
		<path class="st1" d="M298.3,140.1"/>
		<path class="st1" d="M190.4,157.9c0,0,75.3-5.5,89.3-12.1c1.3-0.6,2.6-1.2,3.7-1.7"/>
		<path class="st1" d="M359.4,95.5"/>
		<path class="st1" d="M347.1,198.3"/>
		<path class="st1" d="M319.9,198.3"/>
		<path class="st1" d="M299.1,112.9"/>
		<path class="st1" d="M424.3,223.1"/>
		<path class="st1" d="M408.3,235.3"/>
		<path class="st1" d="M395.8,222.2"/>
		<path class="st1" d="M384.2,195.5"/>
		<path class="st1" d="M341.7,154.9"/>
		<path class="st1" d="M190.4,186c2.2,12.6,2.2,25.5,0,38.1c-2.6,4.8-0.8,10.9,4,13.5c1.5,0.8,3.1,1.2,4.7,1.2h2.5
			c4.5,0,8.5-3.1,9.6-7.4l6.3-27.6l-2.3-48"/>
		<path class="st1" d="M203.4,59c0,0,24.2,20,14.2,75.9"/>
		<path class="st1" d="M242.9,152.8c0,0,13.6-39.4,3.7-70.3"/>
		<path class="st1" d="M265.3,50.5c0,0,12.5,15,13,48.5"/>
		<path class="st1" d="M314.5,86"/>
		<path class="st1" d="M301.4,49.7"/>
		<path class="st1" d="M171.7,101.9c0.9-14.4-2.6-28.7-10.1-41.1"/>
	</g>
	<path class="st1" d="M283.5,144.1"/>
	<path class="st1" d="M297.4,65.4"/>
	<path class="st1" d="M305.3,53.7"/>
</g>
</svg>
