<?xml version="1.0" encoding="utf-8"?>

<svg width="700" height="700" version="1.1" xmlns="http://www.w3.org/2000/svg" xmlns:xlink="http://www.w3.org/1999/xlink" x="0px" y="0px"
	 viewBox="0 0 81.5 84.8" style="enable-background:new 0 0 81.5 84.8;" xml:space="preserve">
<style type="text/css">
	.st0{fill:none;stroke:#020203;stroke-width:2;stroke-linecap:round;stroke-linejoin:round;stroke-miterlimit:10;}
	.st1{fill:none;stroke:#020203;stroke-width:2;stroke-linecap:round;stroke-linejoin:round;}
</style>
<g id="l1">
	<g>
		<path class="st0" d="M46.1,51.7c-0.2-0.8-0.3-1.5-0.5-2.3c-0.3-1.4-0.6-2.9-1-4.3c-1.2-0.5-7.9-3.3-9.8-10.3
			c-1.1-3.9-0.6-7.4-0.6-7.4c-0.2-1.8-3.3-1.8-3.3-1.8l-2.6,0.2c-0.8,0.1-1.5-0.4-1.8-1.2L26.3,24c-0.3-0.8,0.1-1.6,0.8-2l9-4.5
			c0,0,2.2-0.9,3.2,1.5c0,0,1.1-2.7,6.5-0.6c0,0-0.4,4.1-5.1,4.1"/>
		<path class="st0" d="M46.3,52.3c0-0.2-0.1-0.4-0.1-0.6"/>
		<path class="st0" d="M46.4,53.1c-0.1-0.3-0.1-0.5-0.2-0.8"/>
		<path class="st0" d="M46.5,53.4c0-0.1,0-0.2-0.1-0.3"/>
		<path class="st0" d="M46.6,53.8c0-0.1-0.1-0.2-0.1-0.4"/>
		<path class="st0" d="M46.8,55c-0.1-0.4-0.2-0.8-0.3-1.2"/>
		<path class="st0" d="M47,55.9c-0.1-0.3-0.1-0.6-0.2-0.9"/>
		<path class="st0" d="M51.8,36.7l0.5,5.7c0,0-3,3-2.1,9.1"/>
		<path class="st0" d="M42.5,25.6c0,0,0.7,3.2,4.9,1.9c1-0.3,2-0.3,3-0.1c2.5,0.6,10.1,1.4,13.9,0.8c0.6-0.1,1.1-0.3,1.6-0.5
			c1.6-0.6,6.7-2.1,11.7,2.3c2,1.8,1.8,4.8,1,7.2c0,0-0.9,2.7,0.5,3.8"/>
		<path class="st0" d="M66.4,34.4l-0.9,9.2l4.1,6.7l-3.4,10.6L63.9,64"/>
		<path class="st0" d="M74.9,34.4c0,0,1,5-2.1,9.7c0,0,0.1,3.9,1.4,6.2l-2,4.2"/>
		<path class="st0" d="M36.9,17.2c0,0,0.9-4.1,7.6-2.5c0,0,6,0.5,8-5.1s-2.2-7.7-2.2-7.7"/>
		<path class="st0" d="M56.6,5.1c0,0,2.9,1.9,0.3,4.9c-2.5,2.9-4.8,2-4.8,2"/>
		<path class="st0" d="M33.2,8c0,0-1.2,5,1.3,7s2.4,2.6,2.4,2.6"/>
		<path class="st0" d="M46.6,7.6c0,0-1.3,1.7,0.1,4.2c0,0,0.6,1.6-0.7,2.9"/>
		<path class="st0" d="M39.2,14.7c0,0-1.9-2.4,0.7-5"/>
		<path class="st0" d="M55,45.9c4.8,0.5,8.9,0.5,11.6-0.6"/>
	</g>
</g>
<g id="l2">
	<g>
		<path class="st1" d="M9,63.7l-2.4,1.6c-0.4,0.3-0.9,0.4-1.4,0.4H4.3c-0.7,0-1.4-0.3-1.9-0.8c-0.6-0.6-0.8-1.4-0.7-2.2l0.9-4.8
			l3.3-2.5c0,0,1.4-5.3,4.8-2.6c3.9,3-1.8,5.2-1.8,5.2"/>
		<path class="st1" d="M11.7,53.8c0,0,5.6-2.7,9.1-2.2c1.4,0.2,2.9,0.1,4.3-0.2c5.4-1,16.8-2.6,22.6,0.5c0,0,8.8,2.5,9.8,17.7
			c0.1,1.4,0.7,2.6,1.7,3.5c1.2,1.1,4.3,1.9,5.1-2.2"/>
		<path class="st1" d="M21.1,63.6c0,0,0.9,5.4-1.6,6.9c-2.8,1.7-8.8,5.5-8.8,5.5s0.7,5.8-3.8,3.5"/>
		<path class="st1" d="M13.7,59.5c0,0-2,2.7-0.6,8.7l-4.4,4.3"/>
		<path class="st1" d="M21.5,68.2c0,0,12.6-0.9,14.9-2s3.1-1,3.1-1"/>
		<path class="st1" d="M39.6,60.7c0,0-1.8,5.2,3.5,14.3l-1.2,5.2c-0.2,1,0.4,2,1.4,2.2c0.1,0,0.3,0,0.4,0h0c0.8,0,1.5-0.5,1.8-1.2
			l2.2-6.2c0,0-2.7-5,0.1-9.7s2-7.5,2-7.5"/>
		<path class="st1" d="M46.7,67.7c0,0,4.1,5.3,7.1,6.8c2.1,1,1.9,4.5,1.9,4.5v0.2c0,1.1,0.9,2,2,2c0,0,0.1,0,0.1,0l0.8,0
			c1.1,0,1.9-0.9,1.9-2V79"/>
		<path class="st1" d="M21.5,72.9c0.4,2.1,0.4,4.3,0,6.4c-0.4,0.8-0.1,1.8,0.7,2.3c0.2,0.1,0.5,0.2,0.8,0.2h0.4
			c0.8,0,1.4-0.5,1.6-1.2l1.1-4.6l-0.4-8"/>
		<path class="st1" d="M23.7,51.7c0,0,4,3.3,2.4,12.7"/>
		<path class="st1" d="M30.2,67.4c0,0,2.3-6.6,0.6-11.7"/>
		<path class="st1" d="M34,50.3c0,0,2.1,2.5,2.2,8.1"/>
		<path class="st1" d="M40,50.2c0,0,2.3,1.7,2.2,6.1"/>
		<path class="st1" d="M18.4,58.9c0.1-2.4-0.4-4.8-1.7-6.9"/>
	</g>
</g>
</svg>
