<svg width="500" height="350" viewBox="0 0 72 72" xmlns="http://www.w3.org/2000/svg"><g style="fill:none;stroke:#000;stroke-linecap:round;stroke-linejoin:round;stroke-miterlimit:10;stroke-width:2"><path d="m28.1685 67.0208 1.1788-3.4527-3.4292-15.4611c-12.3235-3.8578-10.3927-17.6861-10.3927-17.6861-.1921-1.7655-3.3238-1.8171-3.3238-1.8171l-2.6499.2126c-.8005.0642-1.544-.4182-1.8116-1.1753l-.2103-.595c-.2696-.7629.0713-1.6072.795-1.969l9.0205-4.5102s2.2172-.8563 3.168 1.5187c0 0 1.1184-2.6975 6.4764-.5542 0 0-.4286 4.0721-5.1437 4.0721"/><path d="m33.0263 39.7485.5358 5.6795s-3.0005 3.0188-2.1432 9.0642"/><path d="m23.0964 51.1838.9644 11.479-1.8217 4.1793"/><path d="m23.7837 28.6554s.671 3.2268 4.8768 1.8649c.9554-.3094 1.9838-.2964 2.9608-.064 2.4541.5839 10.0605 1.4413 13.8729.783.5614-.0969 1.1066-.2553 1.637-.4631 1.5592-.6108 6.7173-2.1085 11.707 2.3083 2.0034 1.7733 1.7879 4.751 1.0301 7.2283-.0102.0336-.8683 2.7102.5438 3.7727"/><path d="m47.6356 37.391-.8572 9.1932 4.0721 6.6663-3.3827 10.6409-2.3504 3.1294"/><path d="m56.125 37.391s.9716 4.995-2.0778 9.7294c0 0 .1072 3.88 1.3931 6.2375l-2.036 4.1551"/><path d="m18.2026 20.2453s.8573-4.1257 7.5548-2.4647c0 0 6.001.4822 7.9835-5.1437s-2.1788-7.698-2.1788-7.698"/><path d="m37.8498 8.1547s2.8621 1.9342.2904 4.8651c-2.5013 2.8506-4.8487 2.0226-4.8487 2.0226"/><path d="m14.5055 11.0295s-1.2151 4.9964 1.2859 6.9654 2.4111 2.5629 2.4111 2.5629"/><path d="m27.847 10.6544s-1.3159 1.711.1307 4.1802c0 0 .6376 1.6171-.6575 2.8709"/><path d="m20.5065 17.7055s-1.9289-2.3896.6965-5.015"/><path d="m36.24 48.9236c4.753.5107 8.8861.5288 11.6242-.5618"/></g></svg>